<?xml version="1.0" encoding="utf-8"?>
<!-- Generator: Adobe Illustrator 22.0.0, SVG Export Plug-In . SVG Version: 6.00 Build 0)  -->
<svg version="1.1" id="Layer_1" xmlns="http://www.w3.org/2000/svg" xmlns:xlink="http://www.w3.org/1999/xlink" x="0px" y="0px"
	 viewBox="0 0 500 500" style="enable-background:new 0 0 500 500;" xml:space="preserve">

<g>
	<polygon class="st0" points="130.577,430.585 165.711,396.864 132.246,363.399 100.013,388.26 	"/>
</g>
<g>
	<polygon class="st0" points="369.423,430.585 334.289,396.864 367.754,363.399 399.987,388.26 	"/>
</g>
<g>
	<path class="st1" d="M200.786,369.405l-38.883-38.883c-2.989-2.989-7.834-2.989-10.823,0l-4.81,4.81
		c-2.989,2.989-2.989,7.834,0,10.823c-2.989-2.989-7.834-2.989-10.823,0l-4.81,4.81c-2.989,2.989-2.989,7.834,0,10.823
		l38.883,38.883c2.989,2.989,7.834,2.989,10.823,0l4.81-4.81c2.989-2.989,2.989-7.834,0-10.823c2.989,2.989,7.834,2.989,10.823,0
		l4.81-4.81C203.775,377.24,203.775,372.394,200.786,369.405z"/>
</g>
<g>
	<path class="st1" d="M369.364,350.966l-4.81-4.81c-2.989-2.989-7.834-2.989-10.823,0c2.989-2.989,2.989-7.834,0-10.823l-4.81-4.81
		c-2.989-2.989-7.834-2.989-10.823,0l-38.883,38.883c-2.989,2.989-2.989,7.834,0,10.823l4.81,4.81c2.989,2.989,7.834,2.989,10.823,0
		c-2.989,2.989-2.989,7.834,0,10.823l4.81,4.81c2.989,2.989,7.834,2.989,10.823,0l38.883-38.883
		C372.353,358.8,372.353,353.955,369.364,350.966z"/>
</g>
<g>
	<path class="st0" d="M308.688,316.046c-6.864-5.5-9.714-14.609-7.206-23.04l2.441-8.207c6.764-22.742,5.28-47.142-4.19-68.896
		l-30.138-69.232c-2.388-5.484-7.8-9.031-13.782-9.031H250h-5.812c-5.982,0-11.394,3.547-13.781,9.031l-30.138,69.232
		c-9.47,21.754-10.954,46.154-4.19,68.896l2.441,8.207c2.507,8.431-0.342,17.54-7.206,23.04l-24.365,19.52l29.907,29.907
		l41.044-41.044C245.647,316.68,250,306.171,250,295.212v0c0,10.958,4.353,21.468,12.102,29.217l41.044,41.044l29.907-29.907
		L308.688,316.046z"/>
</g>
<g>
	<g>
		<path class="st2" d="M303.146,365.473l-41.044-41.044C254.353,316.68,250,306.171,250,295.212v0
			c0,10.959-4.353,21.468-12.102,29.217l-41.044,41.044l3.932,3.932c2.942,2.942,2.981,7.68,0.131,10.678
			c15.419,5.17,31.923,7.976,49.082,7.976s33.663-2.806,49.082-7.976c-2.85-2.998-2.811-7.736,0.131-10.678L303.146,365.473z"/>
	</g>
	<g>
		<path class="st2" d="M250,79.48c-85.212,0-154.29,69.078-154.29,154.29c0,43.198,17.761,82.243,46.369,110.25
			c1.534,0.247,3.008,0.954,4.19,2.136c-2.989-2.989-2.989-7.834,0-10.823l4.81-4.81c2.989-2.989,7.834-2.989,10.823,0l5.044,5.044
			l24.365-19.52c6.864-5.5,9.714-14.609,7.206-23.04l-2.441-8.207c-6.764-22.742-5.28-47.142,4.19-68.896l30.138-69.232
			c2.388-5.484,7.8-9.031,13.781-9.031H250h5.812c5.982,0,11.394,3.547,13.782,9.031l30.138,69.232
			c9.47,21.754,10.954,46.154,4.19,68.896l-2.441,8.207c-2.507,8.431,0.342,17.54,7.206,23.04l24.365,19.52l5.044-5.044
			c2.989-2.989,7.834-2.989,10.823,0l4.81,4.81c2.989,2.989,2.989,7.834,0,10.823c1.182-1.182,2.656-1.889,4.19-2.136
			c28.608-28.008,46.369-67.052,46.369-110.25C404.29,148.558,335.212,79.48,250,79.48z"/>
	</g>
</g>
<path class="st3" d="M266.334,453.787c0,2.761-2.239,5-5,5H255v6.334c0,2.761-2.239,5-5,5s-5-2.239-5-5v-6.334h-6.334
	c-2.761,0-5-2.239-5-5s2.239-5,5-5H245v-6.334c0-2.761,2.239-5,5-5s5,2.239,5,5v6.334h6.334
	C264.095,448.787,266.334,451.026,266.334,453.787z M434.438,336.635h-6.333v-6.334c0-2.761-2.239-5-5-5s-5,2.239-5,5v6.334h-6.334
	c-2.761,0-5,2.239-5,5s2.239,5,5,5h6.334v6.334c0,2.761,2.239,5,5,5s5-2.239,5-5v-6.334h6.333c2.761,0,5-2.239,5-5
	S437.199,336.635,434.438,336.635z M88.23,336.635h-6.334v-6.334c0-2.761-2.239-5-5-5s-5,2.239-5,5v6.334h-6.333
	c-2.761,0-5,2.239-5,5s2.239,5,5,5h6.333v6.334c0,2.761,2.239,5,5,5s5-2.239,5-5v-6.334h6.334c2.761,0,5-2.239,5-5
	S90.991,336.635,88.23,336.635z M282.036,379.611c-20.815,4.553-42.943,4.575-63.767,0.066c-2.696-0.583-5.36,1.13-5.945,3.828
	c-0.584,2.699,1.129,5.361,3.829,5.945c11.055,2.394,22.442,3.608,33.847,3.608c11.517,0,23.014-1.238,34.173-3.679
	c2.698-0.59,4.406-3.255,3.816-5.953C287.399,380.729,284.732,379.022,282.036,379.611z M121.539,327.94
	c1.634,2.226,4.765,2.705,6.989,1.07c2.226-1.635,2.705-4.764,1.07-6.99c-18.898-25.733-28.888-56.249-28.888-88.251
	c0-82.319,66.971-149.29,149.29-149.29s149.29,66.971,149.29,149.29c0,32.002-9.989,62.519-28.888,88.251
	c-1.635,2.226-1.156,5.355,1.07,6.99c0.892,0.655,1.928,0.97,2.956,0.97c1.537,0,3.054-0.707,4.034-2.041
	c20.168-27.461,30.828-60.025,30.828-94.171c0-87.833-71.457-159.29-159.29-159.29S90.71,145.937,90.71,233.769
	C90.71,267.915,101.371,300.479,121.539,327.94z M130.577,485.527c-2.761,0-5,2.239-5,5V495c0,2.761,2.239,5,5,5s5-2.239,5-5v-4.473
	C135.577,487.766,133.338,485.527,130.577,485.527z M369.423,485.527c-2.761,0-5,2.239-5,5V495c0,2.761,2.239,5,5,5s5-2.239,5-5
	v-4.473C374.423,487.766,372.185,485.527,369.423,485.527z M403.946,391.314c-1.687,2.187-4.826,2.592-7.013,0.906l-28.752-22.176
	l-26.748,26.748l29.992,28.785c1.905,1.83,2.998,4.393,2.998,7.033v42.512c0,2.761-2.239,5-5,5s-5-2.239-5-5v-42.405l-30.063-28.853
	l-0.344,0.344c-2.39,2.39-5.567,3.706-8.947,3.706s-6.557-1.316-8.947-3.707l-4.811-4.81c-2.035-2.035-3.217-4.597-3.573-7.251
	c-2.653-0.356-5.216-1.538-7.25-3.573l-4.81-4.811v0c-4.934-4.934-4.934-12.961,0-17.895l0.397-0.397l-37.508-37.508
	c-3.505-3.505-6.38-7.475-8.566-11.768c-2.187,4.293-5.061,8.262-8.566,11.768l-37.508,37.508l0.397,0.397
	c4.934,4.934,4.934,12.961,0,17.895l-4.81,4.81c-2.035,2.035-4.597,3.216-7.25,3.573c-0.356,2.653-1.538,5.216-3.573,7.251
	l-4.811,4.81c-2.39,2.39-5.567,3.706-8.947,3.706s-6.557-1.316-8.947-3.706l-0.344-0.344l-30.063,28.853v42.405c0,2.761-2.239,5-5,5
	s-5-2.239-5-5v-42.512c0-2.64,1.092-5.203,2.997-7.032l29.993-28.786l-18.222-18.222l-8.526-8.526l-28.752,22.176
	c-2.186,1.686-5.326,1.281-7.013-0.906c-1.687-2.187-1.281-5.326,0.905-7.013l28.101-21.674c-2.743-4.828-2.072-11.084,2.04-15.197
	l4.811-4.811c2.035-2.035,4.597-3.216,7.25-3.573c0.356-2.653,1.538-5.216,3.573-7.251l4.81-4.81c4.934-4.934,12.961-4.933,17.895,0
	l1.878,1.878l20.87-16.72c5.302-4.248,7.476-11.2,5.54-17.712l-2.441-8.206c-7.089-23.835-5.527-49.518,4.398-72.317l30.139-69.233
	c3.183-7.311,10.392-12.035,18.366-12.035h11.625c7.974,0,15.183,4.724,18.366,12.036l30.139,69.232
	c9.925,22.8,11.487,48.482,4.398,72.317l-2.441,8.207c-1.937,6.512,0.238,13.464,5.54,17.712l20.87,16.72l1.877-1.877
	c4.934-4.933,12.961-4.933,17.895,0l4.81,4.811c2.035,2.035,3.217,4.597,3.573,7.25c2.653,0.356,5.216,1.538,7.25,3.573l4.811,4.81
	c4.112,4.113,4.783,10.369,2.04,15.197l28.101,21.674C405.227,385.988,405.632,389.127,403.946,391.314z M181.617,388.574
	l-38.883-38.883c-0.501-0.501-1.167-0.777-1.876-0.777s-1.375,0.276-1.876,0.777l-4.811,4.81c-1.034,1.034-1.034,2.718,0,3.752
	l1.608,1.608c0.001,0.001,0.002,0.001,0.003,0.002l17.832,17.832l19.442,19.441c1.002,1.002,2.75,1.002,3.751,0l4.811-4.811
	C182.652,391.292,182.652,389.609,181.617,388.574z M197.25,372.941l-38.883-38.883c-0.517-0.517-1.197-0.776-1.876-0.776
	s-1.359,0.259-1.876,0.776l-4.81,4.81c-1.035,1.035-1.035,2.718,0,3.752l38.883,38.883c1.002,1.002,2.75,1.002,3.752,0l4.81-4.81
	c0,0,0,0,0,0C198.285,375.658,198.285,373.975,197.25,372.941z M303.146,358.402l22.424-22.424l-20.008-16.03
	c-8.491-6.803-11.974-17.938-8.872-28.367l2.441-8.207c6.418-21.58,5.004-44.833-3.982-65.475l-30.139-69.232
	c-1.594-3.661-5.204-6.027-9.197-6.027h-11.625c-3.993,0-7.603,2.366-9.197,6.027L204.852,217.9
	c-8.986,20.642-10.4,43.895-3.982,65.475l2.441,8.206c3.102,10.429-0.381,21.564-8.872,28.367l-20.008,16.03l22.424,22.424
	l37.508-37.508c6.86-6.86,10.638-15.98,10.638-25.681v-64.224c0-3.51-2.855-6.365-6.365-6.365c-3.509,0-6.364,2.855-6.364,6.365
	v29.948c0,4.955-1.929,9.612-5.433,13.115l-4.489,4.49c-1.953,1.953-5.118,1.953-7.071,0c-1.953-1.953-1.953-5.118,0-7.071
	l4.49-4.49c1.615-1.615,2.504-3.761,2.504-6.044v-29.948c0-9.023,7.341-16.365,16.364-16.365c2.258,0,4.406,0.465,6.365,1.295
	v-45.495c0-2.761,2.239-5,5-5s5,2.239,5,5v45.495c1.958-0.83,4.107-1.295,6.365-1.295c9.023,0,16.364,7.341,16.364,16.365v29.948
	c0,2.283,0.889,4.43,2.503,6.044l4.49,4.49c1.953,1.953,1.953,5.118,0,7.071c-0.976,0.976-2.256,1.465-3.536,1.465
	s-2.559-0.488-3.536-1.464l-4.49-4.49c-3.503-3.503-5.433-8.161-5.433-13.115v-29.948c0-3.51-2.855-6.365-6.364-6.365
	c-3.51,0-6.365,2.855-6.365,6.365v64.224c0,9.701,3.778,18.822,10.638,25.681L303.146,358.402z M307.56,381.503
	c1.002,1.002,2.75,1.002,3.752,0l38.883-38.883c1.035-1.034,1.035-2.718,0-3.752l-4.81-4.811c-0.517-0.517-1.197-0.776-1.876-0.776
	c-0.68,0-1.359,0.259-1.876,0.776l-38.883,38.883c-1.035,1.034-1.035,2.718,0,3.752c0,0,0,0,0,0L307.56,381.503z M326.945,397.137
	l38.884-38.883c1.034-1.034,1.034-2.718,0-3.752l-4.811-4.81c-1.002-1.002-2.75-1.002-3.752,0l-38.883,38.883
	c-1.035,1.034-1.035,2.718,0,3.752l4.811,4.81C324.195,398.14,325.943,398.139,326.945,397.137z M250,147.368c-2.761,0-5,2.239-5,5
	v3.313c0,2.761,2.239,5,5,5s5-2.239,5-5v-3.313C255,149.606,252.761,147.368,250,147.368z M250,65.66c2.761,0,5-2.239,5-5V28.854
	c0-2.761-2.239-5-5-5s-5,2.239-5,5V60.66C245,63.421,247.239,65.66,250,65.66z M250,13.644c2.761,0,5-2.239,5-5V5
	c0-2.761-2.239-5-5-5s-5,2.239-5,5v3.644C245,11.406,247.239,13.644,250,13.644z M372.407,116.363c1.279,0,2.559-0.488,3.536-1.464
	l22.49-22.49c1.953-1.953,1.953-5.118,0-7.071s-5.118-1.952-7.071,0l-22.49,22.49c-1.953,1.953-1.953,5.118,0,7.071
	C369.848,115.875,371.127,116.363,372.407,116.363z M409.188,79.582c1.28,0,2.56-0.488,3.536-1.465l2.577-2.577
	c1.953-1.953,1.952-5.119,0-7.071c-1.953-1.953-5.119-1.952-7.071,0.001l-2.577,2.577c-1.953,1.953-1.952,5.119,0,7.071
	C406.628,79.094,407.908,79.582,409.188,79.582z M454.915,228.769h-31.806c-2.761,0-5,2.239-5,5s2.239,5,5,5h31.806
	c2.761,0,5-2.239,5-5S457.676,228.769,454.915,228.769z M478.77,228.769h-3.645c-2.761,0-5,2.239-5,5s2.239,5,5,5h3.645
	c2.761,0,5-2.239,5-5S481.531,228.769,478.77,228.769z M81.891,233.769c0-2.761-2.239-5-5-5H45.085c-2.761,0-5,2.239-5,5
	s2.239,5,5,5h31.806C79.652,238.769,81.891,236.531,81.891,233.769z M24.875,228.769H21.23c-2.761,0-5,2.239-5,5s2.239,5,5,5h3.645
	c2.761,0,5-2.239,5-5S27.636,228.769,24.875,228.769z M124.058,114.898c0.977,0.976,2.256,1.464,3.536,1.464
	s2.559-0.488,3.536-1.465c1.953-1.953,1.953-5.118,0-7.071l-22.49-22.49c-1.953-1.953-5.118-1.952-7.071,0
	c-1.953,1.953-1.953,5.118,0,7.071L124.058,114.898z M87.277,78.117c0.976,0.977,2.256,1.465,3.536,1.465
	c1.279,0,2.559-0.488,3.535-1.464c1.953-1.952,1.953-5.118,0-7.071l-2.577-2.577c-1.951-1.953-5.118-1.953-7.071-0.001
	c-1.953,1.952-1.953,5.118,0,7.071L87.277,78.117z"/>
</svg>
