<svg xmlns="http://www.w3.org/2000/svg" viewBox="0 0 120 120"><defs><style>.a{fill:#fdc503;}.b{fill:#74aa50;}.c{fill:#fefefe;}</style></defs><path class="a" d="M52,120c.13-.47.11-1.18.41-1.38,2.53-1.66,11-.69,12.59,1.38Z"/><path class="a" d="M120,69c-1.45.81-.33,3-1.9,3.69-2-3.92-1.48-6,1.9-7.69Z"/><path class="a" d="M0,51c.87-.17,2.34-1.16,2.44.24C2.61,53.7,3.61,56.79,0,58Z"/><path class="a" d="M60,0c-2.76,3.13-6.92,3.13-8,0Z"/><path class="a" d="M0,62c3.73,1.24,2.86,5,2.44,7C2,71.24.92,68.32,0,68Z"/><path class="a" d="M68,0c.47,1.3,2.67.34,2.86,2.72C68.05,1.93,64.7,4,63,0Z"/><path class="a" d="M120,61c-2.92-2.14-2.92-5.63,0-8Z"/><path class="b" d="M26.89,60.09A32.66,32.66,0,0,1,60,26.89,32.68,32.68,0,0,1,93.11,60.16a32.69,32.69,0,0,1-32.89,33C41.47,93.16,26.91,78.74,26.89,60.09Z"/><path class="a" d="M107.41,93.7c1-1.67,1.86-3.36,2.85-5,.4-.67.84-1.55,1.87-.89.74.46.5,1.15.14,1.72C111.13,91.33,110.6,93.7,107.41,93.7Z"/><path class="a" d="M118.07,50.12a10.55,10.55,0,0,1-1.22-1.86c-.5-2-1.83-3.87-.92-6,0-.11,1.2,0,1.28.17C118.09,44.58,119.48,46.74,118.07,50.12Z"/><path class="a" d="M69.38,118.45c3.76-2.26,3.76-2.26,7.51-1.77A7.29,7.29,0,0,1,69.38,118.45Z"/><path class="a" d="M40.78,116.26c3-1.72,5-.08,8.5,1.7C45.11,119,43,117.31,40.78,116.26Z"/><path class="a" d="M79.57,115.45c2.62-2.28,4.81-3.47,8.43-3.4C85.52,114.66,83.42,116.05,79.57,115.45Z"/><path class="a" d="M40.45,4.37c2-2,4.41-2.75,7.7-2.93C46,5.11,42.94,4.08,40.45,4.37Z"/><path class="a" d="M19.69,16.65c.58-1.21.65-1.58.87-1.77,1.58-1.38,2.8-3.31,5.18-3.43.2,0,.67,1.07.63,1.1C24.42,14,23.07,16.41,19.69,16.65Z"/><path class="a" d="M109.55,27.36c-3.1-.78-3.85-3.41-5.08-5.66C107.81,22.3,108.5,25,109.55,27.36Z"/><path class="a" d="M10.05,28.78a10.49,10.49,0,0,1-3.69,7.28A6.77,6.77,0,0,1,10.05,28.78Z"/><path class="a" d="M5.57,39.73,3.49,46.55C1.62,43.53,2.34,41.16,5.57,39.73Z"/><path class="a" d="M74.54,2.66c3.45-.47,5.62.88,7.7,2.55C79.65,5.6,77.26,5.17,74.54,2.66Z"/><path class="a" d="M37,5.22c-.6,1.22-.71,1.88-1,2-2.07.64-3.51,3.08-6.1,2.18a1.06,1.06,0,0,1-.26-.83A13.81,13.81,0,0,1,37,5.22Z"/><path class="a" d="M85.62,6.34a13.5,13.5,0,0,1,7.54,4.27C89.5,10.69,88.87,10.35,85.62,6.34Z"/><path class="a" d="M26.78,108.25c-.38.34-.52.55-.62.54-2.65-.34-4.2-2.25-5.74-4.14a2.6,2.6,0,0,1,.76-1A12.21,12.21,0,0,1,26.78,108.25Z"/><path class="a" d="M99.61,103.87a11.73,11.73,0,0,1,5.65-6.57C105.2,100.42,103.13,101.82,99.61,103.87Z"/><path class="a" d="M12.5,95.5c2.94.44,3.83,2.94,5.33,4.86C14.55,100.44,13.53,97.94,12.5,95.5Z"/><path class="a" d="M10.2,91.62c-2.61-1.13-3-3.64-3.63-6.07A6.94,6.94,0,0,1,10.2,91.62Z"/><path class="a" d="M102.25,19.12c-3.24-1.42-5.06-3-6.49-6.31C99.16,14.07,101,15.62,102.25,19.12Z"/><path class="a" d="M12.67,24.86c.41-2.86,2-4.66,4.89-6.12C17.28,22.47,14.58,23.37,12.67,24.86Z"/><path class="a" d="M115,37.73c-2.56-1.37-3.39-3.69-3.89-7.19C114.07,32.66,114.66,35.1,115,37.73Z"/><path class="a" d="M113.43,84.48c.12-3.3,1.18-5.39,3.07-8.29C117,80,116.39,82.26,113.43,84.48Z"/><path class="a" d="M2.82,74.26a9.61,9.61,0,0,1,2.28,7C2.69,79.43,2.14,77,2.82,74.26Z"/><path class="a" d="M91.37,110.79c-.17-.71-.29-.9-.24-1,1.15-2.29,3.31-3.3,5.49-4.24.11,0,.84.9.77,1A14.19,14.19,0,0,1,91.37,110.79Z"/><path class="a" d="M30.28,110.92a10.48,10.48,0,0,1,7.28,3.62C33.78,114.73,31.89,113.06,30.28,110.92Z"/><path class="c" d="M86.88,60.43C86.61,74.83,74,87.07,59.7,86.88c-14.59-.19-27-13.08-26.58-27.56s13.14-26.55,27.43-26.2S87.15,46.12,86.88,60.43Z"/><path class="b" d="M60,66.89c4.64,0,9.28.06,13.92,0,2.69,0,2.84,1,1.52,2.91C71.7,75.14,66.73,78.15,60,78.14s-11.7-3-15.45-8.39c-1.35-1.94-1.08-2.94,1.55-2.89C50.73,67,55.37,66.89,60,66.89Z"/><path class="b" d="M76.85,51.86a4.08,4.08,0,0,1-1.7,3.52,1.55,1.55,0,0,1-2.56-.17c-1.51-2-2.81-1.71-4.3,0C67,56.71,66,55.69,65,54.73c-1.25-1.19-1.23-2.31.07-3.34,2-1.55,3.39-5,6-4.26C73.49,47.85,75.34,50.56,76.85,51.86Z"/><path class="b" d="M56,53.38c-1.12,1.08-1.91,3.8-4,2s-3.4-1.74-5.15.24c-.85,1-1.83.07-2.53-.67s-1.84-1.48-.94-2.47c1.89-2.06,3.9-5.28,6.08-5.47s4.31,3.15,6.17,5.27C55.87,52.49,55.87,52.88,56,53.38Z"/></svg>