<svg id="b7566947-673e-42d4-a9b0-26b4c75a5325" data-name="Calque 1" xmlns="http://www.w3.org/2000/svg" viewBox="0 0 432.81 432.81"><defs><style>.fill__1{fill:none;stroke-width:2px;}.fill__1,.fill__2{stroke:#FFF;}.fill__2{fill:#fff;stroke-miterlimit:10;}</style></defs><circle class="fill__1" cx="216.41" cy="216.41" r="215.41"/><circle class="fill__1" cx="216.41" cy="216.41" r="142.18"/><path class="fill__2" d="M58.7,297.15a8,8,0,1,1,3.76-10.55A7.86,7.86,0,0,1,58.7,297.15Z" transform="translate(-1.91 -3.95)"/><path class="fill__2" d="M58.19,192.71a21.76,21.76,0,0,1,1.11,9.06c-.53,9.58-7,16.46-18.12,15.84-10.63-.59-17.44-8.2-16.86-18.73a18.34,18.34,0,0,1,2-8l3.52,1.26A16,16,0,0,0,28,198.93c-.44,8,4.36,13.54,13.28,14,8.32.46,13.93-4,14.38-12.3a17.51,17.51,0,0,0-1-7.23Z" transform="translate(-1.91 -3.95)"/><path class="fill__2" d="M49.41,158.23c11.39,2.71,15.79,11.08,13.77,19.53C61.1,186.5,52.86,191,42.84,188.63,32.33,186.13,27,178,29.12,169.12,31.27,160.08,39.59,155.89,49.41,158.23ZM43.83,184c7.07,1.69,14.32-.63,15.92-7.36S56,164.58,48.53,162.79c-6.58-1.57-14.28.23-16,7.35S36.56,182.31,43.83,184Z" transform="translate(-1.91 -3.95)"/><path class="fill__2" d="M67.64,159.23l-30.89-14.3,2-4.35L59,137.91a98.58,98.58,0,0,1,12.6-.9v-.11c-4.3-1.54-8.1-3.19-12.91-5.42l-12.92-6,1.74-3.76L78.38,136l-1.87,4-20.22,2.55a106.57,106.57,0,0,1-13,1l0,.15c4,1.58,7.76,3.21,12.89,5.58l13.2,6.11Z" transform="translate(-1.91 -3.95)"/><path class="fill__2" d="M76.69,128.85a15.56,15.56,0,0,0,6.3-5.23c2.56-3.69,2.09-7.2-.73-9.15-2.62-1.81-5.15-1.34-9.21,1.43-4.78,3.46-9.09,4.65-13,1.93-4.37-3-5.11-8.87-1.36-14.31a15.46,15.46,0,0,1,5.65-5.25l2.26,3a13.5,13.5,0,0,0-5,4.4c-2.64,3.82-1.36,6.85.56,8.17,2.61,1.81,5.08,1,9.24-1.84,5.1-3.48,9-4.31,13.16-1.47,4.32,3,5.85,8.76,1.3,15.37a17.56,17.56,0,0,1-6.72,5.91Z" transform="translate(-1.91 -3.95)"/><path class="fill__2" d="M95.22,88.85l-9,9.69,9,8.36,10-10.8,2.7,2.51-13,14L70,89.45,82.5,76l2.7,2.51L75.67,88.74l7.88,7.33,9-9.69Z" transform="translate(-1.91 -3.95)"/><path class="fill__2" d="M92.4,67.32,114.71,93l-3.32,2.87L89.08,70.2Z" transform="translate(-1.91 -3.95)"/><path class="fill__2" d="M100,61l3.6-2.52L121,83.33,132.94,75l2.12,3L119.54,88.87Z" transform="translate(-1.91 -3.95)"/><path class="fill__2" d="M122.42,46.22l3.91-2,13.79,27,13-6.6,1.67,3.28-16.86,8.6Z" transform="translate(-1.91 -3.95)"/><path class="fill__2" d="M169.19,46.06l-12.52,4.28,4,11.61,14-4.77,1.2,3.49-18.11,6.19-11-32.2,17.39-5.95,1.2,3.48L152,36.72l3.48,10.18L168,42.62ZM160,21.92l-4.15,7.67-3.44,1.17L155,23.65Z" transform="translate(-1.91 -3.95)"/><path class="fill__2" d="M185.2,24l18.2-2.23.45,3.66L190,27.11l1.37,11.23,12.79-1.56.44,3.61L191.82,42l1.87,15.29-4.36.53Z" transform="translate(-1.91 -3.95)"/><path class="fill__2" d="M241.58,39.25c-.61,11.7-8,17.54-16.71,17.09-9-.47-14.92-7.75-14.39-18,.56-10.79,7.63-17.51,16.71-17C236.47,21.74,242.1,29.17,241.58,39.25Zm-26.41-.81c-.37,7.26,3.22,14,10.13,14.33s11.23-5.84,11.63-13.56c.35-6.75-2.82-14-10.13-14.38S215.56,31,215.17,38.44Z" transform="translate(-1.91 -3.95)"/><path class="fill__2" d="M251.74,24.9a45.35,45.35,0,0,1,8.37,1.24c4.58,1.07,7.33,2.6,9,4.95A8.49,8.49,0,0,1,270.2,38,8.93,8.93,0,0,1,262,45l0,.15c2.34,1.49,3.32,4.2,3.29,7.83,0,4.87,0,8.25.43,9.69l-4.43-1c-.32-1.06-.39-4.09-.35-8.44.09-4.8-1.28-6.94-5.13-8l-4-.95L248.35,58.6l-4.27-1Zm.74,16.1,4.38,1c4.57,1.07,8.06-.75,8.94-4.54,1-4.28-1.65-6.87-6.16-8a18.69,18.69,0,0,0-4.32-.6Z" transform="translate(-1.91 -3.95)"/><path class="fill__2" d="M290.87,55.65l-12.28-4.94L274,62.1l13.68,5.5L286.31,71l-17.75-7.15L281.27,32.3l17.05,6.87-1.38,3.42-13-5.22-4,10,12.27,4.94Z" transform="translate(-1.91 -3.95)"/><path class="fill__2" d="M296.45,76.76l8-34.89,4.07,2.44-4.09,17.1c-1.11,4.69-2.16,8.89-3.44,12.78l.09,0c2.85-2.88,6.27-5.83,9.86-8.86l13.59-11.45,4,2.42-27.95,22.9Z" transform="translate(-1.91 -3.95)"/><path class="fill__2" d="M336,86l-10.15-8.48L318,86.9l11.32,9.45-2.36,2.83L312.24,86.91l21.82-26.12,14.1,11.78L345.8,75.4l-10.73-9-6.9,8.25,10.16,8.48Z" transform="translate(-1.91 -3.95)"/><path class="fill__2" d="M354.81,79.69a45.24,45.24,0,0,1,6.11,5.85c3.11,3.52,4.48,6.36,4.44,9.22a8.46,8.46,0,0,1-3.07,6.28,9,9,0,0,1-10.76.95l-.11.1c1.06,2.57.28,5.34-1.84,8.29-2.82,4-4.75,6.75-5.26,8.15l-3-3.41c.35-1.05,2-3.55,4.59-7.08,2.85-3.87,3-6.4.44-9.49l-2.74-3.1-11.05,9.76-2.91-3.29ZM346.1,93.24l3,3.37c3.12,3.52,7,4,9.93,1.47,3.29-2.91,2.63-6.56-.41-10.08a18.26,18.26,0,0,0-3.18-3Z" transform="translate(-1.91 -3.95)"/><path class="fill__2" d="M390.25,169.77a8,8,0,1,1-6.07,9.41A7.86,7.86,0,0,1,390.25,169.77Z" transform="translate(-1.91 -3.95)"/><path class="fill__2" d="M72.7,348.55a15.64,15.64,0,0,0,4,7.14c3.19,3.17,6.72,3.34,9.15.91,2.24-2.26,2.24-4.83.23-9.32-2.55-5.32-3-9.78.43-13.18,3.75-3.76,9.64-3.45,14.33,1.22a15.55,15.55,0,0,1,4.15,6.49l-3.39,1.68a13.58,13.58,0,0,0-3.44-5.7c-3.29-3.28-6.5-2.56-8.14-.91-2.25,2.25-1.88,4.82.16,9.42,2.51,5.64,2.63,9.67-.9,13.22-3.7,3.72-9.67,4.19-15.35-1.47a17.68,17.68,0,0,1-4.63-7.67Z" transform="translate(-1.91 -3.95)"/><path class="fill__2" d="M114.49,348.25l-11.63,16.46c-4.4,6.23-3.5,10.82.21,13.44,4.13,2.91,8.69,2.05,13-4.09l11.63-16.46,3.63,2.57-11.45,16.2c-6,8.54-13,8.87-19,4.62-5.69-4-7.68-10.31-1.59-18.93l11.57-16.37Z" transform="translate(-1.91 -3.95)"/><path class="fill__2" d="M141.82,365.43,126,395.57l-3.89-2.05,15.83-30.13Z" transform="translate(-1.91 -3.95)"/><path class="fill__2" d="M143.14,403.35l1.76-35.76,4.44,1.69-1,17.56c-.27,4.81-.57,9.13-1.14,13.18l.09,0c2.3-3.34,5.15-6.85,8.16-10.46L166.79,376l4.39,1.67-23.51,27.46Z" transform="translate(-1.91 -3.95)"/><path class="fill__2" d="M178.9,379l-8.27,33L166.36,411l8.28-33Z" transform="translate(-1.91 -3.95)"/><path class="fill__2" d="M212.74,401.72l-13.19-1L198.66,413l14.7,1.07-.27,3.68L194,416.36l2.48-33.95,18.34,1.34-.27,3.67-14-1-.79,10.72,13.2,1Z" transform="translate(-1.91 -3.95)"/><path class="fill__2" d="M228.38,386.86l-10.32.76-.27-3.73L242.92,382l.27,3.73-10.37.76L235,416.75l-4.43.32Z" transform="translate(-1.91 -3.95)"/><path class="fill__2" d="M289,403.61a22.14,22.14,0,0,1-8.11,4.2c-9.17,2.83-17.86-.82-21.15-11.48-3.15-10.18,1.61-19.21,11.69-22.33a18.21,18.21,0,0,1,8.16-.94l.05,3.74a15.94,15.94,0,0,0-7,.68c-7.62,2.35-11.17,8.79-8.53,17.33,2.46,8,8.63,11.65,16.54,9.21a17.7,17.7,0,0,0,6.43-3.48Z" transform="translate(-1.91 -3.95)"/><path class="fill__2" d="M316.54,371.9c5.44,10.37,2,19.18-5.66,23.22-8,4.18-16.79.94-21.58-8.18-5-9.56-2.36-18.94,5.68-23.17C303.21,359.45,311.84,363,316.54,371.9Zm-23.13,12.77c3.39,6.44,9.9,10.37,16,7.16s6.67-10.75,3.08-17.59c-3.15-6-9.57-10.61-16-7.2S289.94,378.05,293.41,384.67Z" transform="translate(-1.91 -3.95)"/><path class="fill__2" d="M334.51,380.39,313,354l3.71-3L336,357.44a95.62,95.62,0,0,1,11.73,4.7l0-.1c-3.19-3.27-5.88-6.41-9.23-10.52l-9-11,3.21-2.62,21.52,26.37-3.44,2.81-19.29-6.55a107,107,0,0,1-12.12-4.78l-.08.14c2.91,3.16,5.57,6.27,9.15,10.65l9.19,11.27Z" transform="translate(-1.91 -3.95)"/><path class="fill__2" d="M359,351.83a15.6,15.6,0,0,0,6.85-4.48c2.95-3.39,2.88-6.93.29-9.19-2.4-2.08-5-1.91-9.32.4-5.13,2.9-9.55,3.6-13.17.45-4-3.48-4.09-9.38.25-14.37a15.52,15.52,0,0,1,6.2-4.58l1.91,3.27a13.61,13.61,0,0,0-5.47,3.81c-3,3.51-2.11,6.66-.36,8.19,2.4,2.09,4.94,1.55,9.4-.8,5.45-2.88,9.47-3.27,13.24,0,4,3.45,4.84,9.36-.43,15.42a17.56,17.56,0,0,1-7.34,5.13Z" transform="translate(-1.91 -3.95)"/><path class="fill__2" d="M378.15,308.65,371,319.79l10.33,6.62,8-12.41,3.1,2L382.07,332.1l-28.65-18.37,9.92-15.47,3.11,2L358.9,312l9.05,5.81,7.14-11.14Z" transform="translate(-1.91 -3.95)"/><path class="fill__2" d="M368,288.76l30.48,15.16-2,3.93L366,292.69Z" transform="translate(-1.91 -3.95)"/><path class="fill__2" d="M371.21,282.09l1.53-4.12,28.45,10.57,5.06-13.63,3.46,1.28-6.6,17.75Z" transform="translate(-1.91 -3.95)"/><path class="fill__2" d="M406.82,266.58a15.58,15.58,0,0,0,3.83-7.23c.94-4.4-.83-7.46-4.19-8.18-3.11-.67-5.27.72-8,4.84-3.09,5-6.62,7.77-11.31,6.77-5.19-1.11-8.12-6.24-6.73-12.7a15.41,15.41,0,0,1,3.21-7l3.25,1.94a13.66,13.66,0,0,0-2.94,6c-1,4.54,1.37,6.85,3.64,7.34,3.11.67,5.08-1,7.84-5.24,3.38-5.16,6.71-7.44,11.6-6.39,5.13,1.1,8.76,5.86,7.08,13.7a17.56,17.56,0,0,1-3.95,8Z" transform="translate(-1.91 -3.95)"/><path class="fill__2" d="M280.11,290.78,235.82,335l-17.56-18.41-16.15,17.92L157.43,290c9.45-12.78,18.67-20.33,25.44-17.52-2.05-6.09-2.72-11.07-5.19-14.9-7.75-12-12.53-24.82-12.31-39.29.1-6.75.36-13.53-.06-20.26-1-16.07,8.07-26.28,19.75-35.05a92.17,92.17,0,0,1,8.38-5.06c-1.54-5-3.07-10.06-4.72-15.44,4.21-1.44,6.49-2,8.71,2.64,3.53,7.42,7.31,15.27,12.94,21,16.68,17.16,36.56,29.28,60.53,33.78,5.18,1,5.79,3.68,2.24,8a8.1,8.1,0,0,0-1.6,4c-1.37,11.2-2.61,22.41-3.84,33.19,5.23-1.09,11-6.76,11.17-14.64.41-23,2.07-46.29-.74-69-2.78-22.44-19-36.84-39.94-44.45-22.06-8-42.23-3-59.85,11.94-14.23,12.09-21.67,27.44-21.25,46.54.42,18.36.09,36.74.09,55C145,233,134.2,227,131,216.23c-3.78-12.82,1.75-26.86,13.16-30.13,6.16-1.76,6.17-5.11,5.81-9.6-2.88-35.35,26.49-61.65,51.77-68.37,41.37-11,85.09,21.74,85.34,64.49,0,3.71,0,7.42,0,10.93,3.91,1.74,7.79,2.84,11,5,9.31,6.3,9.67,16.05,8.27,25.71-1.22,8.51-6.65,13.93-15.09,16.53a9.92,9.92,0,0,0-5.67,4.95c-4.13,10.24-10.62,17.11-22,19-6.41,1.07-8.76,7.21-7.47,16.9C261.07,270.42,265.46,273.9,280.11,290.78Zm-29.24-33.36-1-2.53c-4.76.29-11.91-1.28-13.84,1.21-6.54,8.4-14.91,6.36-23,6.42-7.15.06-11.21-4-11.93-11-.79-7.63,2.29-13.45,8.1-15.31,9.69-3.1,22.25-.23,25.48,5.83.11.2.31.4.32.61.3,5,3.73,5,7.42,4.81a44.75,44.75,0,0,1,7.68,0c5,.63,8.35-1.13,9.17-6.12,1.73-10.46,3.33-21,4.42-31.51.15-1.45-2.56-4.11-4.45-4.74-22.51-7.58-42-19.76-58-37.38a6.84,6.84,0,0,0-5.64-1.83c-11.42,3.14-23,18.68-23,30.33,0,7.69-.26,15.38.07,23.06.88,20.94,10.09,37.48,27.37,49.28,9.8,6.69,20.68,9.34,31.55,3.22C238.48,267.94,244.46,262.29,250.87,257.42Zm-3.61,12.75c-19.38,17.37-38.65,15-58.9-.41.63,5.2-.2,9.69,1.66,11.75,9.12,10.07,19,19.49,28.79,29.39,8.14-8.23,15.18-16,22.95-23C247,283.25,249.31,278.26,247.26,270.17ZM210,315,177.66,281.2l-9.09,8.4,32.82,33Zm25.7,9.49,33.53-33.57L260,282.14l-33,32.79Zm52.57-102.27c8.14-2,10.28-5.34,10.07-15.05-.18-8.73-2.33-11.59-10.07-13.15ZM148.44,194c-7.8,3-10.91,7.74-10.13,15.3.62,6,2.47,11.28,10.13,12.68Zm70.65,50.19v.14c-1.62,0-3.54-.55-4.79.13-1.9,1-4.81,3.11-4.64,4.4.28,2.13,2.31,5.06,4.25,5.7a16.9,16.9,0,0,0,9.56,0c1.81-.54,3.78-3.29,4.07-5.27.2-1.41-2-3.59-3.68-4.69C222.7,243.77,220.71,244.23,219.09,244.14Z" transform="translate(-1.91 -3.95)"/></svg>