<svg id="aa244f79-202d-4c8f-b9b8-e44ceab34308" data-name="Calque 1" xmlns="http://www.w3.org/2000/svg" viewBox="0 0 120 120"><defs><style>.svg__color--1{fill:#74aa50;}.svg__color--2{fill:#fdc503;}</style></defs><path class="svg__color--1" d="M52,120c0-.16,0-.38.08-.48C54.37,117,63,117.29,65,120Z"/><path class="svg__color--1" d="M0,51c1-.14,2.71-1.34,2.62.43-.13,2.64.84,6-2.62,7.57Z"/><path class="svg__color--1" d="M120,70c-1.42.32-.42,2.76-2.83,2.64.49-2.78-2.06-6.35,2.83-7.64Z"/><path class="svg__color--1" d="M69,0c.65.66,1.86,1.35,1.83,2-.06,1.35-1.46,1.05-2.33.87C66.43,2.42,63.61,3.28,63,0Z"/><path class="svg__color--1" d="M69,120c.59-5.36,4.47-3.24,8.11-4.1-2,3.63-5.44,2.09-7.11,4.1Z"/><path class="svg__color--1" d="M120,61c-3-2.07-3-5.65,0-8Z"/><path class="svg__color--2" d="M87,50.36C89.14,68.87,78.2,81.2,63,91.15c-2.31,1.51-4.21,1.8-6.73.2A62.91,62.91,0,0,1,37.78,74.13C32.56,66.62,31.46,58.24,32,49.4c.25-4.31-1.23-9.53.73-12.69s7.89-2.64,11.8-4.39c10.12-4.54,19.89-3.84,30.22-.06C86.81,36.7,87,36.16,87,50.36ZM59.29,60.45c0-8-.11-16,.05-24,.06-3.36-1-4.09-4.1-2.9-2.77,1.07-5.73,1.68-8.59,2.54-10.54,3.17-10,3.21-10.66,14-.91,16,7.11,26.74,19.27,35.4.9.65,1.87,1.78,3.06,1.33,1.66-.63.92-2.3.93-3.5C59.33,75.75,59.29,68.1,59.29,60.45Z"/><path class="svg__color--1" d="M36.71,6.39c-1.25,1.86-3.66,2.18-5.47,3.34-.78.5-2,0-1.68-.86.85-2.14,3.27-2.37,5.05-3.37C35.38,5.08,36.17,5,36.71,6.39Z"/><path class="svg__color--1" d="M42.56,115.1c1.34,1.35,4.44-.13,5.35,2.67.23.7-.78,1.12-1.36.87-2-.83-4.68-.23-5.75-2.71C40.54,115.32,41.51,115,42.56,115.1Z"/><path class="svg__color--1" d="M105.46,96.38a11.25,11.25,0,0,1,.36,1.86c-1.11,2.21-2.46,4.21-4.89,5.13-.15.06-.9-.71-.83-.88C101.05,100,103.17,98.64,105.46,96.38Z"/><path class="svg__color--1" d="M47.75,3C46,4.26,43.67,4.5,41.48,4.93c-.76.15-1.5-.7-1.12-1.12C42,2,44.43,1.89,46.65,1.45,47.41,1.3,47.74,2,47.75,3Z"/><path class="svg__color--1" d="M118.18,50.2c-.82-1.06-1.25-1.4-1.38-1.82-.62-2-1.48-3.92-1-6.06,0-.11,1.14-.21,1.23,0C118.19,44.49,119.47,46.73,118.18,50.2Z"/><path class="svg__color--1" d="M10,28.56a10.13,10.13,0,0,1-3.66,7.5C5.68,32.14,7.66,30.22,10,28.56Z"/><path class="svg__color--1" d="M93.49,11c-1.13.32-1.52.56-1.71.46-2-1.1-4.28-1.76-5.65-3.74-.11-.16.48-1.12.62-1.09A11,11,0,0,1,93.49,11Z"/><path class="svg__color--1" d="M82.37,5.31a8,8,0,0,1-7.14-1.85c-.09-.09.35-1.11.51-1.11A8.6,8.6,0,0,1,82.37,5.31Z"/><path class="svg__color--1" d="M2.62,47.69c-1.25-4.21.41-6.35,2-8.54C5.33,41.89,4.48,44.26,2.62,47.69Z"/><path class="svg__color--1" d="M16.49,19.05c1,.19,1.44.86,1,1.43-1.38,1.77-2.46,3.94-4.64,4.87-.65.27-1.11-.79-.74-1.37C13.33,22.08,14.39,20,16.49,19.05Z"/><path class="svg__color--1" d="M79.71,115.11a16.39,16.39,0,0,1,7.88-3.44C85.27,115.28,84,115.84,79.71,115.11Z"/><path class="svg__color--1" d="M29.35,109.84c3.62,1.23,5.92,2.09,7.95,4.21C33.38,114.48,32.74,114.18,29.35,109.84Z"/><path class="svg__color--1" d="M12,95.41c.9-.21,1.1-.33,1.2-.27a11.35,11.35,0,0,1,4.7,5.27c.07.14-.71.94-.84.88C14.6,100.13,13.32,98,12,95.41Z"/><path class="svg__color--1" d="M108.14,94.24c-.06-.8-.29-1.35-.1-1.67,1-1.82,1.66-3.94,3.6-5.08.15-.08,1,.62,1,.79C111.92,90.7,111,93,108.14,94.24Z"/><path class="svg__color--1" d="M10.12,91.77C7.61,90.25,6.63,88,5.58,84.44,9.3,86.58,10.17,89,10.12,91.77Z"/><path class="svg__color--1" d="M104.63,21.59c2.8,1.06,4.59,2.92,5.16,6.66C106.53,26.63,105.5,24.19,104.63,21.59Z"/><path class="svg__color--1" d="M97.58,105.21c-1.14,3.71-4,4.1-6,6.17C91.8,107.9,92,107.74,97.58,105.21Z"/><path class="svg__color--1" d="M2.68,74.24c2,1.87,2.62,4.16,2.87,7.43C2.28,79.53,2.19,77,2.68,74.24Z"/><path class="svg__color--1" d="M102.24,19.11a11.71,11.71,0,0,1-6.65-6.27C99.1,14,101.27,15.31,102.24,19.11Z"/><path class="svg__color--1" d="M114.64,37.66C112.5,36.11,111.39,34,111,30.8,114.33,32.49,114.75,34.94,114.64,37.66Z"/><path class="svg__color--1" d="M117.3,76.21c-.55,3.86-.81,6.31-3.89,8.27C113.69,81.15,114.11,78.73,117.3,76.21Z"/><path class="svg__color--1" d="M20.48,16.54c.77-2.79,2.67-4.33,5.56-5.61C25.75,14.89,22.48,15.11,20.48,16.54Z"/><path class="svg__color--1" d="M26.62,108.39c-3.12.17-4.73-1.83-6.72-4.44C23.56,104,25,106.3,26.62,108.39Z"/></svg>