<svg id="b6c38852-0c27-4764-9b89-5fc5fdeccec1" data-name="Calque 1" xmlns="http://www.w3.org/2000/svg" viewBox="0 0 494.89 494.89"><defs><style>.a239bcf6-94b8-4888-905a-d1824d05cf48{font-size:162.23px;font-family:MyriadPro-Regular, Myriad Pro;}.a239bcf6-94b8-4888-905a-d1824d05cf48,.b257cac3-a38f-442a-acf5-82564bcbdd69,.e2b86a02-4c68-4ad3-ab62-132c6dc5418e{stroke:#fff;}.a239bcf6-94b8-4888-905a-d1824d05cf48,.b257cac3-a38f-442a-acf5-82564bcbdd69{fill:#fff;stroke-miterlimit:10;}.eb1d26a0-88cd-4cbf-8e37-912eda52018d{letter-spacing:-0.05em;}.e2b86a02-4c68-4ad3-ab62-132c6dc5418e{fill:none;stroke-width:2px;}</style></defs><text class="a239bcf6-94b8-4888-905a-d1824d05cf48" transform="translate(118.15 301.93) rotate(-0.2)">S<tspan class="eb1d26a0-88cd-4cbf-8e37-912eda52018d" x="79.98" y="0">A</tspan><tspan x="170.67" y="0">V</tspan></text><circle class="e2b86a02-4c68-4ad3-ab62-132c6dc5418e" cx="247.44" cy="247.44" r="246.44"/><circle class="e2b86a02-4c68-4ad3-ab62-132c6dc5418e" cx="247.44" cy="247.44" r="162.66"/><path class="b257cac3-a38f-442a-acf5-82564bcbdd69" d="M69.94,349.89a8.63,8.63,0,1,1,3.64-11.58A8.52,8.52,0,0,1,69.94,349.89Z" transform="translate(-2.67 -2.11)"/><path class="b257cac3-a38f-442a-acf5-82564bcbdd69" d="M59.7,273.93a18.26,18.26,0,0,0,1.84-9.43c-.43-5.26-3.46-8.11-7.48-7.78-3.72.31-5.68,2.61-7.31,8.16-1.77,6.69-4.81,11-10.42,11.45-6.21.51-11.24-4.26-11.88-12a18.2,18.2,0,0,1,1.23-9L30,256.43a15.94,15.94,0,0,0-1.27,7.73c.45,5.43,3.87,7.24,6.59,7,3.72-.3,5.36-2.88,7-8.55,2-7,5-10.65,10.87-11.13,6.15-.5,11.85,3.62,12.62,13,.31,3.84-.47,8.13-1.71,10.37Z" transform="translate(-2.67 -2.11)"/><path class="b257cac3-a38f-442a-acf5-82564bcbdd69" d="M46.75,223.9l-.93,15.51,14.39.86,1-17.29,4.32.26-1.34,22.44-39.9-2.38,1.29-21.55,4.32.26L29,238.4l12.61.76.92-15.51Z" transform="translate(-2.67 -2.11)"/><path class="b257cac3-a38f-442a-acf5-82564bcbdd69" d="M27.77,210.14a54,54,0,0,1,1.29-9.85c1.17-5.39,2.91-8.66,5.64-10.61a9.92,9.92,0,0,1,8.09-1.46,10.5,10.5,0,0,1,8.37,9.52l.18,0c1.69-2.79,4.87-4,9.12-4,5.73-.09,9.7-.2,11.38-.69l-1.13,5.22c-1.24.4-4.79.54-9.9.58-5.64,0-8.12,1.63-9.29,6.18l-1,4.75,16.93,3.68-1.1,5ZM46.66,209l1.12-5.16c1.17-5.39-1-9.45-5.5-10.42-5.05-1.1-8,2.07-9.26,7.39a21,21,0,0,0-.62,5.09Z" transform="translate(-2.67 -2.11)"/><path class="b257cac3-a38f-442a-acf5-82564bcbdd69" d="M76.65,180.62l-42-2.78,2.08-5.17,20.6,1.55c5.64.42,10.71.85,15.46,1.61l0-.11c-3.87-2.77-7.93-6.19-12.11-9.79L44.94,152.3,47,147.18l31.77,28.16Z" transform="translate(-2.67 -2.11)"/><path class="b257cac3-a38f-442a-acf5-82564bcbdd69" d="M53.41,136.3l35.07,19.18L86,160,50.94,140.83Z" transform="translate(-2.67 -2.11)"/><path class="b257cac3-a38f-442a-acf5-82564bcbdd69" d="M107.09,125.47a25.55,25.55,0,0,1-4.61,9.69c-6.56,9.15-17.29,11.9-27.94,4.26-10.17-7.29-12.12-19.12-4.9-29.2,2.9-4,5.6-6,7-6.67L79.31,107a18.77,18.77,0,0,0-6,5.59c-5.46,7.62-4.22,16.17,4.31,22.28,8,5.71,16.34,4.79,22-3.11a20.87,20.87,0,0,0,3.56-7.82Z" transform="translate(-2.67 -2.11)"/><path class="b257cac3-a38f-442a-acf5-82564bcbdd69" d="M112.52,95.29l-10.94,11,10.24,10.14L124,104.16l3.08,3-15.82,16L82.87,95.05,98.06,79.71l3.07,3.05L89.58,94.43l9,8.89,10.93-11Z" transform="translate(-2.67 -2.11)"/><path class="b257cac3-a38f-442a-acf5-82564bcbdd69" d="M138.35,82.85l3.23,12.84-4.51,2.86-9.95-41,5.26-3.34,32.94,26.44-4.66,3-10.34-8.33Zm8.9-10.43-9.47-7.62c-2.15-1.73-3.92-3.41-5.66-5l-.1.06c.77,2.33,1.52,4.73,2.17,7.19l2.9,11.87Z" transform="translate(-2.67 -2.11)"/><path class="b257cac3-a38f-442a-acf5-82564bcbdd69" d="M153.44,43a58.61,58.61,0,0,1,8.84-4.54c4.7-2,8.6-2.32,11.62-1.26a10.75,10.75,0,0,1,6.46,6.36,11.79,11.79,0,0,1,.45,9.07c-1.39,3.73-4.93,6.82-9.58,8.76a17.74,17.74,0,0,1-4,1.28l6.18,14.77-4.76,2Zm12.2,15.78a17.48,17.48,0,0,0,4.1-1.26c5.74-2.41,8.08-6.66,5.95-11.75-2-4.87-6.47-5.78-11.72-3.58a21.84,21.84,0,0,0-4.33,2.26Z" transform="translate(-2.67 -2.11)"/><path class="b257cac3-a38f-442a-acf5-82564bcbdd69" d="M186.75,30.19a53.33,53.33,0,0,1,9.43-3.13c5.37-1.3,9.06-1.15,12,.45A10,10,0,0,1,213,34.15a10.5,10.5,0,0,1-4.93,11.69l0,.17c3.25.31,5.71,2.65,7.61,6.46,2.57,5.12,4.4,8.64,5.57,9.94l-5.19,1.26c-.9-1-2.57-4.08-4.84-8.66-2.44-5.08-5-6.6-9.6-5.67L197,50.48,201,67.31l-5,1.22ZM196,46.68l5.13-1.24c5.36-1.3,8.06-5.06,7-9.5-1.21-5-5.37-6.33-10.69-5.1a20.66,20.66,0,0,0-4.84,1.66Z" transform="translate(-2.67 -2.11)"/><path class="b257cac3-a38f-442a-acf5-82564bcbdd69" d="M229.82,12.54l6.08,6.4-4.26.35-8.08-6.23Zm14.35,29.21-15.48,1.3,1.2,14.36L247.15,56l.36,4.31-22.4,1.88-3.34-39.84,21.52-1.8.36,4.31L227.28,26.2l1.05,12.59,15.49-1.29Z" transform="translate(-2.67 -2.11)"/><path class="b257cac3-a38f-442a-acf5-82564bcbdd69" d="M251.77,54.09a18.34,18.34,0,0,0,9.08,3.16c5.27.31,8.51-2.29,8.75-6.31.22-3.73-1.78-6-7-8.39-6.38-2.69-10.2-6.31-9.86-11.93.37-6.22,5.79-10.53,13.55-10.07A18.24,18.24,0,0,1,275,23l-1.67,4.12a15.83,15.83,0,0,0-7.46-2.34c-5.45-.33-7.72,2.8-7.88,5.53-.22,3.73,2.1,5.71,7.47,8.17,6.6,3,9.84,6.46,9.49,12.33-.37,6.15-5.25,11.21-14.66,10.65-3.85-.23-8-1.61-10-3.16Z" transform="translate(-2.67 -2.11)"/><path class="b257cac3-a38f-442a-acf5-82564bcbdd69" d="M297.32,66.46l-2-42,5.38,1.48.8,20.63c.23,5.66.37,10.75.16,15.55l.12,0C304.07,58,307,53.56,310.1,49l11.74-17.26,5.32,1.46L302.81,68Z" transform="translate(-2.67 -2.11)"/><path class="b257cac3-a38f-442a-acf5-82564bcbdd69" d="M345.07,64.42,330.91,58,325,71.16l15.78,7.13L339,82.23,318.49,73l16.45-36.44,19.68,8.89-1.78,3.94-15-6.76-5.2,11.52,14.17,6.39Z" transform="translate(-2.67 -2.11)"/><path class="b257cac3-a38f-442a-acf5-82564bcbdd69" d="M342.94,84.19l22.41-33.1L370,54.25l-.72,23.93A113.59,113.59,0,0,1,368,93h.13c2.6-4.68,5.23-8.78,8.72-13.93l9.37-13.85,4,2.72L367.8,101l-4.33-2.92.86-23.91a129.23,129.23,0,0,1,1.29-15.24l-.18,0c-2.58,4.34-5.17,8.38-8.89,13.88L347,86.92Z" transform="translate(-2.67 -2.11)"/><path class="b257cac3-a38f-442a-acf5-82564bcbdd69" d="M402.88,85.16l-8.77-8.43,3-3.16,21.34,20.5-3,3.17-8.81-8.47L382,114.43l-3.76-3.62Z" transform="translate(-2.67 -2.11)"/><path class="b257cac3-a38f-442a-acf5-82564bcbdd69" d="M419.68,129.83l-9.52-12.28-11.39,8.83,10.61,13.69L406,142.72,392.19,125l31.58-24.5L437,117.52l-3.42,2.65-10.07-13-10,7.74,9.52,12.28Z" transform="translate(-2.67 -2.11)"/><path class="b257cac3-a38f-442a-acf5-82564bcbdd69" d="M448.61,181.84a8.63,8.63,0,1,1-5.85,10.64A8.53,8.53,0,0,1,448.61,181.84Z" transform="translate(-2.67 -2.11)"/><path class="b257cac3-a38f-442a-acf5-82564bcbdd69" d="M132.38,400.85l-.09-.07-7.11-1.14,1.53-3.56,8.91,1.46,3.34,2.55L116.81,429l-3.79-2.9Z" transform="translate(-2.67 -2.11)"/><path class="b257cac3-a38f-442a-acf5-82564bcbdd69" d="M162.21,435c-6,10.86-13.27,14.65-20.35,10.77-6.24-3.42-7.26-11.58-1.57-22.21,5.87-10.71,13.73-14.08,20.21-10.52C167.24,416.74,167.79,424.83,162.21,435Zm-17.62-9c-4.55,8.31-4.58,14.43-.65,16.58,4.43,2.43,9.37-1.57,13.84-9.73,4.31-7.87,5.12-14.14.65-16.59C154.64,414.18,149.36,417.29,144.59,426Z" transform="translate(-2.67 -2.11)"/><path class="b257cac3-a38f-442a-acf5-82564bcbdd69" d="M191.43,446.14c-4.23,11.65-10.88,16.51-18.47,13.76-6.69-2.43-9-10.34-4.94-21.71,4.17-11.49,11.41-16,18.37-13.49C193.61,427.32,195.39,435.24,191.43,446.14Zm-18.79-6.22c-3.23,8.91-2.33,15,1.89,16.49,4.74,1.72,9-3,12.19-11.74,3.05-8.43,2.9-14.74-1.89-16.49C180.77,426.71,176,430.59,172.64,439.92Z" transform="translate(-2.67 -2.11)"/><path class="b257cac3-a38f-442a-acf5-82564bcbdd69" d="M216.21,443.79c-1.17,7.59-5.74,10.74-10.39,10-4.49-.69-7.82-4.88-6.76-12.15s5.67-10.65,10.44-9.91C214.54,432.52,217.27,436.91,216.21,443.79ZM203,442.09c-.82,4.58.36,8.34,3.41,8.8,3.21.5,5.18-2.71,5.92-7.48.67-4.38,0-8.23-3.42-8.75C205.83,434.19,203.67,437.54,203,442.09Zm.19,26.8,26.89-34,3.11.48-26.9,34Zm34.2-6.59c-1.17,7.59-5.74,10.74-10.34,10s-7.81-4.88-6.76-12.1,5.67-10.7,10.44-10C235.74,451,238.41,455.42,237.36,462.3Zm-13.24-1.7c-.77,4.59.47,8.35,3.46,8.81,3.22.5,5.19-2.72,5.92-7.48.67-4.38,0-8.23-3.42-8.75C227,452.71,224.81,456.06,224.12,460.6Z" transform="translate(-2.67 -2.11)"/><path class="b257cac3-a38f-442a-acf5-82564bcbdd69" d="M258.67,435.78a70.58,70.58,0,0,1,10.2-2.07c6.95-.88,12.1.11,15.77,2.75s6.22,6.73,7,12.8-.48,11.36-3.55,15.25-8.61,6.57-15.9,7.49a79.68,79.68,0,0,1-8.84.66Zm9,32.54a31.52,31.52,0,0,0,4.93-.33c10.34-1.31,15.23-7.8,13.95-17.93-1.06-8.85-6.77-13.84-17-12.54a27.5,27.5,0,0,0-5.61,1.21Z" transform="translate(-2.67 -2.11)"/><path class="b257cac3-a38f-442a-acf5-82564bcbdd69" d="M299.76,428.08l9.72,36.51-4.71,1.26-9.72-36.51Z" transform="translate(-2.67 -2.11)"/><path class="b257cac3-a38f-442a-acf5-82564bcbdd69" d="M318.55,455.85a17.36,17.36,0,0,0,9-.86c4.66-1.81,6.42-5.32,5-8.87-1.27-3.29-3.88-4.44-9.35-4.43-6.54.19-11.25-1.41-13.17-6.38-2.13-5.49.84-11.33,7.68-14a17.16,17.16,0,0,1,8.46-1.29l.18,4.19a15.15,15.15,0,0,0-7.34.92c-4.8,1.87-5.52,5.45-4.59,7.86,1.28,3.29,4.05,4.08,9.64,4.08,6.85,0,11,1.69,13,6.86,2.11,5.44-.09,11.7-8.4,14.92-3.4,1.32-7.5,1.77-9.86,1.24Z" transform="translate(-2.67 -2.11)"/><path class="b257cac3-a38f-442a-acf5-82564bcbdd69" d="M333.05,416a57.57,57.57,0,0,1,7.74-5.31c4.18-2.4,7.8-3.2,10.75-2.57a10.15,10.15,0,0,1,6.81,5.2,11.12,11.12,0,0,1,1.51,8.45c-.86,3.66-3.8,7-7.93,9.36a16.82,16.82,0,0,1-3.57,1.67l7.56,13.11-4.22,2.44Zm13.32,13.35a16,16,0,0,0,3.7-1.68c5.1-2.94,6.77-7.21,4.17-11.72-2.49-4.32-6.76-4.65-11.42-2A19.83,19.83,0,0,0,339,416.6Z" transform="translate(-2.67 -2.11)"/><path class="b257cac3-a38f-442a-acf5-82564bcbdd69" d="M394.66,393.81c8.43,9.9,6.87,20.28-.47,26.52-7.6,6.47-17.95,5.12-25.36-3.59-7.77-9.14-7.18-19.95.51-26.49C377.19,383.57,387.4,385.27,394.66,393.81Zm-21.93,19.46c5.23,6.15,13.24,8.83,19.09,3.85s4.61-13.27-.94-19.8c-4.87-5.72-12.94-9.16-19.13-3.89S367.35,407,372.73,413.27Z" transform="translate(-2.67 -2.11)"/><path class="b257cac3-a38f-442a-acf5-82564bcbdd69" d="M416.2,398.67l-29.69-23.36,3.29-4.18,22.51,2.3a106.33,106.33,0,0,1,13.84,2.27l0-.13c-4.24-2.76-7.92-5.52-12.54-9.16l-12.42-9.77,2.84-3.62,29.69,23.37-3.05,3.87-22.49-2.42a120.86,120.86,0,0,1-14.28-2.26l-.05.17c3.91,2.73,7.55,5.45,12.48,9.33l12.69,10Z" transform="translate(-2.67 -2.11)"/><path class="b257cac3-a38f-442a-acf5-82564bcbdd69" d="M410.47,341.68,443,360.91l-2.48,4.2L408,345.88Z" transform="translate(-2.67 -2.11)"/><path class="b257cac3-a38f-442a-acf5-82564bcbdd69" d="M415.13,334.82a47.64,47.64,0,0,1,2.9-8.47c2-4.45,4-7,6.72-8.36a7.91,7.91,0,0,1,7.37-.17c3.33,1.48,5.27,5,5,9.21l.1.05c2.28-2.92,6.7-5.56,11.82-3.28a10.15,10.15,0,0,1,5.63,6c1.13,3.39.43,7.74-2.07,13.38a58.36,58.36,0,0,1-3.48,6.73Zm16.12,1.82,1.8-4.05c2.09-4.72.86-8.58-2.47-10-4.05-1.8-7,.57-9,5.08a21.6,21.6,0,0,0-1.45,4.08ZM447.81,344a25.4,25.4,0,0,0,1.86-3.65c2.05-4.61,2.24-9.61-2.78-11.84-4.71-2.1-8.46,1.09-10.62,6l-1.63,3.69Z" transform="translate(-2.67 -2.11)"/><path class="b257cac3-a38f-442a-acf5-82564bcbdd69" d="M426.11,307l1.28-4.7,32.51,8.85,4.24-15.58,3.95,1.07-5.52,20.29Z" transform="translate(-2.67 -2.11)"/><path class="b257cac3-a38f-442a-acf5-82564bcbdd69" d="M454.71,264.71l-1.78,14.58,13.53,1.65,2-16.25,4.06.5-2.57,21.09-37.51-4.58,2.48-20.25,4.06.49-1.88,15.42,11.85,1.44,1.78-14.58Z" transform="translate(-2.67 -2.11)"/></svg>